{
    "asset" : {
        "generator" : "Khronos glTF Blender I/O v1.6.16",
        "version" : "2.0"
    },
    "scene" : 0,
    "scenes" : [
        {
            "name" : "Scene",
            "nodes" : [
                0,
                1,
                2,
                3,
                4,
                5
            ]
        }
    ],
    "nodes" : [
        {
            "name" : "Light",
            "rotation" : [
                0.16907575726509094,
                0.7558803558349609,
                -0.27217137813568115,
                0.570947527885437
            ],
            "translation" : [
                4.076245307922363,
                5.903861999511719,
                -1.0054539442062378
            ]
        },
        {
            "name" : "Camera",
            "rotation" : [
                0.483536034822464,
                0.33687159419059753,
                -0.20870360732078552,
                0.7804827094078064
            ],
            "translation" : [
                7.358891487121582,
                4.958309173583984,
                6.925790786743164
            ]
        },
        {
            "mesh" : 0,
            "name" : "RedLocomotive_BogieB",
            "rotation" : [
                0.7071068286895752,
                0,
                0,
                0.7071067094802856
            ],
            "translation" : [
                0,
                0.3753681480884552,
                0
            ]
        },
        {
            "name" : "Light.001",
            "rotation" : [
                0.16907575726509094,
                0.7558804154396057,
                -0.27217137813568115,
                0.5709474086761475
            ],
            "translation" : [
                4.076245307922363,
                5.903861999511719,
                -1.0054539442062378
            ]
        },
        {
            "name" : "Camera.001",
            "rotation" : [
                0.48353609442710876,
                0.3368716537952423,
                -0.20870374143123627,
                0.7804827690124512
            ],
            "translation" : [
                7.358891487121582,
                4.958309173583984,
                6.925790786743164
            ]
        },
        {
            "mesh" : 1,
            "name" : "M_Rail",
            "scale" : [
                0.005423469934612513,
                0.005423469934612513,
                0.005423469934612513
            ],
            "translation" : [
                -2.139061689376831,
                0,
                -0.3976883292198181
            ]
        }
    ],
    "materials" : [
        {
            "doubleSided" : true,
            "name" : "M_Metal_Chrome",
            "pbrMetallicRoughness" : {
                "baseColorFactor" : [
                    0.2158605009317398,
                    0.2158605009317398,
                    0.2158605009317398,
                    1
                ],
                "roughnessFactor" : 0.5527864098548889
            }
        },
        {
            "doubleSided" : true,
            "name" : "M_Wood_Oak",
            "pbrMetallicRoughness" : {
                "baseColorFactor" : [
                    0.2742016911506653,
                    0.1351347714662552,
                    0.0503515787422657,
                    1
                ],
                "roughnessFactor" : 0.5527864098548889
            }
        }
    ],
    "meshes" : [
        {
            "name" : "Cylinder.037_Cylinder.002",
            "primitives" : [
                {
                    "attributes" : {
                        "POSITION" : 0,
                        "NORMAL" : 1
                    },
                    "indices" : 2,
                    "material" : 0
                }
            ]
        },
        {
            "name" : "M_Rail",
            "primitives" : [
                {
                    "attributes" : {
                        "POSITION" : 3,
                        "NORMAL" : 4,
                        "TEXCOORD_0" : 5,
                        "TEXCOORD_1" : 6
                    },
                    "indices" : 7,
                    "material" : 1
                },
                {
                    "attributes" : {
                        "POSITION" : 8,
                        "NORMAL" : 9,
                        "TEXCOORD_0" : 10,
                        "TEXCOORD_1" : 11
                    },
                    "indices" : 12,
                    "material" : 0
                }
            ]
        }
    ],
    "accessors" : [
        {
            "bufferView" : 0,
            "componentType" : 5126,
            "count" : 85376,
            "max" : [
                1.18145751953125,
                0.6858977675437927,
                0.34196674823760986
            ],
            "min" : [
                -1.1897211074829102,
                -0.6891302466392517,
                -0.28437530994415283
            ],
            "type" : "VEC3"
        },
        {
            "bufferView" : 1,
            "componentType" : 5126,
            "count" : 85376,
            "type" : "VEC3"
        },
        {
            "bufferView" : 2,
            "componentType" : 5125,
            "count" : 136536,
            "type" : "SCALAR"
        },
        {
            "bufferView" : 3,
            "componentType" : 5126,
            "count" : 460,
            "max" : [
                930,
                -4.999999523162842,
                170
            ],
            "min" : [
                -30.00000762939453,
                -15,
                -30
            ],
            "type" : "VEC3"
        },
        {
            "bufferView" : 4,
            "componentType" : 5126,
            "count" : 460,
            "type" : "VEC3"
        },
        {
            "bufferView" : 5,
            "componentType" : 5126,
            "count" : 460,
            "type" : "VEC2"
        },
        {
            "bufferView" : 6,
            "componentType" : 5126,
            "count" : 460,
            "type" : "VEC2"
        },
        {
            "bufferView" : 7,
            "componentType" : 5123,
            "count" : 672,
            "type" : "SCALAR"
        },
        {
            "bufferView" : 8,
            "componentType" : 5126,
            "count" : 684,
            "max" : [
                975,
                12.5,
                145
            ],
            "min" : [
                -75,
                -12.5,
                -5
            ],
            "type" : "VEC3"
        },
        {
            "bufferView" : 9,
            "componentType" : 5126,
            "count" : 684,
            "type" : "VEC3"
        },
        {
            "bufferView" : 10,
            "componentType" : 5126,
            "count" : 684,
            "type" : "VEC2"
        },
        {
            "bufferView" : 11,
            "componentType" : 5126,
            "count" : 684,
            "type" : "VEC2"
        },
        {
            "bufferView" : 12,
            "componentType" : 5123,
            "count" : 1092,
            "type" : "SCALAR"
        }
    ],
    "bufferViews" : [
        {
            "buffer" : 0,
            "byteLength" : 1024512,
            "byteOffset" : 0
        },
        {
            "buffer" : 0,
            "byteLength" : 1024512,
            "byteOffset" : 1024512
        },
        {
            "buffer" : 0,
            "byteLength" : 546144,
            "byteOffset" : 2049024
        },
        {
            "buffer" : 0,
            "byteLength" : 5520,
            "byteOffset" : 2595168
        },
        {
            "buffer" : 0,
            "byteLength" : 5520,
            "byteOffset" : 2600688
        },
        {
            "buffer" : 0,
            "byteLength" : 3680,
            "byteOffset" : 2606208
        },
        {
            "buffer" : 0,
            "byteLength" : 3680,
            "byteOffset" : 2609888
        },
        {
            "buffer" : 0,
            "byteLength" : 1344,
            "byteOffset" : 2613568
        },
        {
            "buffer" : 0,
            "byteLength" : 8208,
            "byteOffset" : 2614912
        },
        {
            "buffer" : 0,
            "byteLength" : 8208,
            "byteOffset" : 2623120
        },
        {
            "buffer" : 0,
            "byteLength" : 5472,
            "byteOffset" : 2631328
        },
        {
            "buffer" : 0,
            "byteLength" : 5472,
            "byteOffset" : 2636800
        },
        {
            "buffer" : 0,
            "byteLength" : 2184,
            "byteOffset" : 2642272
        }
    ],
    "buffers" : [
        {
            "byteLength" : 2644456,
            "uri" : "data:application/octet-stream;base64,"
        }
    ]
}
